<svg width="189" height="92" viewBox="0 0 189 92" fill="none" xmlns="http://www.w3.org/2000/svg">
<g clip-path="url(#clip0_2_176)">
<path d="M126.591 98.9178C126.548 96.6637 126.505 94.3671 126.463 92.113C126.463 91.5176 126.463 90.9221 126.42 90.3267V89.4336C126.378 85.3507 126.292 81.2253 126.207 77.1424C126.207 76.0366 126.165 74.9308 126.165 73.7825C124.675 73.74 123.142 73.74 121.609 73.74C120.289 73.74 118.969 73.74 117.607 73.74C116.926 73.74 116.244 73.74 115.521 73.7825C89.847 74.2078 57.872 77.9079 23.1722 89.8164C14.9123 92.6659 7.1634 95.728 -0.0746101 98.9178H126.591Z" fill="url(#paint0_linear_2_176)"/>
<path d="M4.22562 98.9178H124.887L124.802 92.7509L124.76 90.9647V90.0716L124.547 77.0999L124.504 75.4412C122.673 75.3987 120.8 75.3987 118.969 75.4412C117.564 75.4412 116.202 75.4837 114.797 75.4837C114.669 75.4837 114.541 75.4837 114.371 75.4837C113.775 75.4837 113.221 75.5263 112.625 75.5263C82.0129 76.3343 52.0816 81.6506 23.7257 91.39C17.1689 93.6441 10.6547 96.1534 4.22562 98.9178Z" fill="url(#paint1_linear_2_176)"/>
<path d="M127.953 98.9178C127.91 96.451 127.868 94.0268 127.825 91.5601C127.825 90.9647 127.825 90.3692 127.783 89.7738C127.783 89.4761 127.783 89.1784 127.783 88.8807C127.74 84.9679 127.655 81.0551 127.612 77.1424C127.187 77.1424 126.718 77.1424 126.293 77.0998C125.739 77.0998 125.186 77.0998 124.589 77.0998C121.907 77.0573 119.097 77.0998 116.244 77.1424C114.797 77.1849 113.349 77.2274 111.859 77.27C111.093 77.3125 110.326 77.3125 109.56 77.355C85.2488 78.3332 56.0413 82.3736 24.5772 93.1762C19.2552 95.005 14.146 96.9189 9.24968 98.9178L127.953 98.9178Z" fill="url(#paint2_radial_2_176)"/>
<path d="M188.156 98.9178V0.673279C174.659 22.8315 157.671 42.2252 137.618 58.259C130.337 64.0856 122.972 69.2318 115.606 73.74C114.627 74.3354 113.647 74.9308 112.668 75.4837C111.646 76.1217 110.582 76.7171 109.56 77.27C91.4649 87.6048 73.6254 94.4096 57.4463 98.8327H188.156V98.9178Z" fill="url(#paint3_linear_2_176)"/>
<path d="M188.156 98.9178V2.67221C178.193 18.7911 162.355 39.801 138.257 59.0671C131.402 64.5535 124.504 69.4019 117.649 73.6975C116.713 74.2929 115.776 74.8883 114.797 75.4412C113.818 76.0366 112.796 76.632 111.817 77.2275C93.8918 87.6899 76.478 94.4521 61.3633 98.8753H188.156V98.9178Z" fill="url(#paint4_linear_2_176)"/>
<path d="M68.6439 98.9178H188.156V6.71255C174.915 27.3822 158.608 45.5425 139.619 60.7683C133.658 65.5317 127.655 69.8272 121.652 73.74C120.758 74.3354 119.863 74.8883 118.969 75.4412C118.033 76.0366 117.139 76.5895 116.202 77.1424C99.9377 87.0094 83.716 93.9843 68.6439 98.9178Z" fill="url(#paint5_radial_2_176)"/>
<path d="M188.156 98.9178V47.4564C175.852 60.5557 161.759 71.5284 146.133 80.1621C139.96 83.5645 133.829 86.4565 127.783 88.9233C127.357 89.0934 126.889 89.2635 126.463 89.4336C125.909 89.6463 125.356 89.9015 124.76 90.1141C113.647 94.3671 102.875 97.1741 92.7422 98.9604H188.156V98.9178Z" fill="url(#paint6_linear_2_176)"/>
<path d="M188.156 98.9178V48.6472C178.449 58.8544 164.824 70.7629 146.516 80.8425C140.215 84.33 133.914 87.2645 127.783 89.7313C127.357 89.9014 126.889 90.0715 126.463 90.2416C125.909 90.4543 125.356 90.6669 124.76 90.8796C115.137 94.5372 105.856 97.089 97.2553 98.8327H188.156V98.9178Z" fill="url(#paint7_linear_2_176)"/>
<path d="M188.156 98.9178V51.0715C176.107 63.4903 162.397 73.9952 147.325 82.3311C140.769 85.9461 134.254 89.0083 127.825 91.5601C127.4 91.7302 126.931 91.9004 126.505 92.0705C125.952 92.2831 125.356 92.4958 124.802 92.7084C118.033 95.2602 111.348 97.3017 104.877 98.8753H188.156V98.9178Z" fill="url(#paint8_radial_2_176)"/>
<path d="M140.087 98.9178H188.156V67.3605C179.087 76.7596 168.784 84.6702 157.416 90.9221C151.583 94.1544 145.793 96.7913 140.087 98.9178Z" fill="url(#paint9_radial_2_176)"/>
</g>
<defs>
<linearGradient id="paint0_linear_2_176" x1="-134.121" y1="11.6028" x2="-98.4936" y2="-21.5824" gradientUnits="userSpaceOnUse">
<stop stop-color="#BA8D49"/>
<stop offset="0.0630952" stop-color="#BF9553"/>
<stop offset="0.134524" stop-color="#CAA567"/>
<stop offset="0.221429" stop-color="#DCBF89"/>
<stop offset="0.3" stop-color="#EEDBAC"/>
<stop offset="0.391667" stop-color="#DFBE6D"/>
<stop offset="1" stop-color="#9E672E"/>
</linearGradient>
<linearGradient id="paint1_linear_2_176" x1="-133.777" y1="10.7782" x2="-99.9354" y2="-20.7441" gradientUnits="userSpaceOnUse">
<stop stop-color="#9E672E"/>
<stop offset="0.611905" stop-color="#DFBF6E"/>
<stop offset="0.70119" stop-color="#EEDBAD"/>
<stop offset="0.814286" stop-color="#D4B47A"/>
<stop offset="0.891667" stop-color="#C59E5F"/>
<stop offset="0.964286" stop-color="#BC914E"/>
<stop offset="1" stop-color="#BA8D49"/>
</linearGradient>
<radialGradient id="paint2_radial_2_176" cx="0" cy="0" r="1" gradientUnits="userSpaceOnUse" gradientTransform="translate(-119.502 0.585322) scale(18.1655 18.1259)">
<stop stop-color="#464749"/>
<stop offset="1" stop-color="#101417"/>
</radialGradient>
<linearGradient id="paint3_linear_2_176" x1="-136.7" y1="-8.61518" x2="-174.095" y2="20.5048" gradientUnits="userSpaceOnUse">
<stop stop-color="#C2912E"/>
<stop offset="0.3" stop-color="#EEDBAC"/>
<stop offset="0.459524" stop-color="#DEBC6A"/>
<stop offset="0.696429" stop-color="#C3922E"/>
<stop offset="1" stop-color="#DFBE6D"/>
</linearGradient>
<linearGradient id="paint4_linear_2_176" x1="-166.203" y1="30.4186" x2="-150.346" y2="6.32347" gradientUnits="userSpaceOnUse">
<stop stop-color="#C2912E"/>
<stop offset="0.3" stop-color="#EEDBAC"/>
<stop offset="0.459524" stop-color="#DEBC6A"/>
<stop offset="0.696429" stop-color="#C3922E"/>
<stop offset="1" stop-color="#DFBE6D"/>
</linearGradient>
<radialGradient id="paint5_radial_2_176" cx="0" cy="0" r="1" gradientUnits="userSpaceOnUse" gradientTransform="translate(-144.723 23.6429) scale(21.1255 21.0795)">
<stop stop-color="#464749"/>
<stop offset="1" stop-color="#101417"/>
</radialGradient>
<linearGradient id="paint6_linear_2_176" x1="-144.931" y1="-8.06019" x2="-169.379" y2="10.9778" gradientUnits="userSpaceOnUse">
<stop stop-color="#C2912E"/>
<stop offset="0.3" stop-color="#EEDBAC"/>
<stop offset="0.459524" stop-color="#DEBC6A"/>
<stop offset="0.696429" stop-color="#C3922E"/>
<stop offset="1" stop-color="#DFBE6D"/>
</linearGradient>
<linearGradient id="paint7_linear_2_176" x1="-164.163" y1="15.7752" x2="-154.448" y2="1.0128" gradientUnits="userSpaceOnUse">
<stop stop-color="#C2912E"/>
<stop offset="0.3" stop-color="#EEDBAC"/>
<stop offset="0.459524" stop-color="#DEBC6A"/>
<stop offset="0.696429" stop-color="#C3922E"/>
<stop offset="1" stop-color="#DFBE6D"/>
</linearGradient>
<radialGradient id="paint8_radial_2_176" cx="0" cy="0" r="1" gradientUnits="userSpaceOnUse" gradientTransform="translate(-152.514 10.3139) scale(12.7946 12.7668)">
<stop stop-color="#464749"/>
<stop offset="1" stop-color="#101417"/>
</radialGradient>
<radialGradient id="paint9_radial_2_176" cx="0" cy="0" r="1" gradientUnits="userSpaceOnUse" gradientTransform="translate(-161.267 4.11017) scale(7.76876 7.75183)">
<stop stop-color="#464749"/>
<stop offset="1" stop-color="#101417"/>
</radialGradient>
<clipPath id="clip0_2_176">
<rect width="188" height="90.8" fill="white" transform="translate(0.200012 0.700012)"/>
</clipPath>
</defs>
</svg>
