<svg width="4" height="4" viewBox="0 0 4 4" fill="none" xmlns="http://www.w3.org/2000/svg">
<path d="M3.11686 2.06418C3.11686 2.27084 3.07732 2.46964 2.99823 2.66056C2.91915 2.85149 2.80654 3.02002 2.66041 3.16615C2.51428 3.31228 2.34575 3.42489 2.15482 3.50398C1.96389 3.58306 1.76509 3.62261 1.55843 3.62261C1.35177 3.62261 1.15298 3.58306 0.962049 3.50398C0.77112 3.42489 0.602589 3.31228 0.456459 3.16615C0.310328 3.02002 0.197719 2.85149 0.118634 2.66056C0.0395483 2.46964 5.57552e-06 2.27084 6.19889e-06 2.06418C5.57552e-06 1.85752 0.0395483 1.65872 0.118634 1.46779C0.197719 1.27686 0.310328 1.10834 0.456459 0.962205C0.602589 0.816071 0.77112 0.703462 0.962049 0.624378C1.15298 0.545294 1.35177 0.505753 1.55843 0.505753C1.76509 0.505753 1.96389 0.545294 2.15482 0.624378C2.34575 0.703462 2.51428 0.816071 2.66041 0.962205C2.80654 1.10834 2.91915 1.27686 2.99823 1.46779C3.07732 1.65872 3.11686 1.85752 3.11686 2.06418Z" fill="white"/>
</svg>
