<svg width="4" height="4" viewBox="0 0 4 4" fill="none" xmlns="http://www.w3.org/2000/svg">
<path d="M3.11686 1.84349C3.11686 2.05015 3.07732 2.24895 2.99823 2.43987C2.91915 2.63081 2.80654 2.79934 2.66041 2.94547C2.51428 3.0916 2.34575 3.20421 2.15482 3.28329C1.96389 3.36238 1.76509 3.40192 1.55843 3.40192C1.35177 3.40192 1.15298 3.36238 0.962049 3.28329C0.77112 3.20421 0.602589 3.0916 0.456459 2.94547C0.310328 2.79934 0.197719 2.63081 0.118634 2.43988C0.0395483 2.24895 5.57552e-06 2.05015 6.19889e-06 1.84349C5.57552e-06 1.63683 0.0395483 1.43804 0.118634 1.24711C0.197719 1.05618 0.310328 0.887647 0.456459 0.741517C0.602589 0.595385 0.77112 0.482776 0.962049 0.403691C1.15298 0.324607 1.35177 0.285065 1.55843 0.285065C1.76509 0.285065 1.96389 0.324607 2.15482 0.403692C2.34575 0.482778 2.51428 0.595385 2.66041 0.741517C2.80654 0.887647 2.91915 1.05618 2.99823 1.24711C3.07732 1.43804 3.11686 1.63683 3.11686 1.84349Z" fill="white"/>
</svg>
