<svg width="4" height="4" viewBox="0 0 4 4" fill="none" xmlns="http://www.w3.org/2000/svg">
<path d="M3.11686 1.62281C3.11686 1.82947 3.07732 2.02826 2.99823 2.21919C2.91915 2.41012 2.80654 2.57865 2.66041 2.72478C2.51428 2.87091 2.34575 2.98352 2.15482 3.06261C1.96389 3.14169 1.76509 3.18124 1.55843 3.18124C1.35177 3.18124 1.15298 3.14169 0.962049 3.06261C0.77112 2.98352 0.602589 2.87091 0.456459 2.72478C0.310328 2.57865 0.197719 2.41012 0.118634 2.21919C0.0395483 2.02826 5.57552e-06 1.82947 6.19889e-06 1.62281C5.57552e-06 1.41615 0.0395483 1.21735 0.118634 1.02642C0.197719 0.835493 0.310328 0.666963 0.456459 0.520833C0.602589 0.374701 0.77112 0.262093 0.962049 0.183008C1.15298 0.103922 1.35177 0.0643797 1.55843 0.0643797C1.76509 0.0643797 1.96389 0.103922 2.15482 0.183008C2.34575 0.262093 2.51428 0.374701 2.66041 0.520833C2.80654 0.666963 2.91915 0.835493 2.99823 1.02642C3.07732 1.21735 3.11686 1.41615 3.11686 1.62281Z" fill="white"/>
</svg>
