<svg width="3" height="4" viewBox="0 0 3 4" fill="none" xmlns="http://www.w3.org/2000/svg">
<path d="M3.00113 1.73532C3.00113 1.93431 2.96305 2.12572 2.88691 2.30955C2.81076 2.49339 2.70233 2.65567 2.56162 2.79638C2.42092 2.93708 2.25865 3.04551 2.07481 3.12166C1.89097 3.19781 1.69955 3.23589 1.50057 3.23589C1.30158 3.23589 1.11016 3.19781 0.926323 3.12166C0.742483 3.04551 0.58021 2.93708 0.439505 2.79638C0.298799 2.65567 0.190372 2.49339 0.114223 2.30955C0.0380738 2.12572 -3.75139e-07 1.93431 0 1.73532C-3.75139e-07 1.53633 0.0380738 1.34491 0.114223 1.16107C0.190372 0.977243 0.298799 0.814973 0.439505 0.674261C0.58021 0.533548 0.742483 0.42512 0.926323 0.348977C1.11016 0.272834 1.30158 0.234756 1.50057 0.234756C1.69955 0.234756 1.89097 0.272834 2.07481 0.348977C2.25865 0.42512 2.42092 0.533548 2.56162 0.674261C2.70233 0.814973 2.81076 0.977243 2.88691 1.16107C2.96305 1.34491 3.00113 1.53633 3.00113 1.73532Z" fill="white"/>
</svg>
