<svg width="3" height="4" viewBox="0 0 3 4" fill="none" xmlns="http://www.w3.org/2000/svg">
<path d="M3.00113 1.69461C3.00113 1.8936 2.96305 2.08501 2.88691 2.26885C2.81076 2.45269 2.70233 2.61497 2.56162 2.75567C2.42092 2.89638 2.25865 3.00481 2.07481 3.08095C1.89097 3.1571 1.69955 3.19518 1.50057 3.19518C1.30158 3.19518 1.11016 3.1571 0.926323 3.08095C0.742483 3.00481 0.58021 2.89638 0.439505 2.75567C0.298799 2.61497 0.190372 2.45269 0.114223 2.26885C0.0380738 2.08501 -3.75139e-07 1.8936 0 1.69461C-3.75139e-07 1.49563 0.0380738 1.30421 0.114223 1.12037C0.190372 0.936531 0.298799 0.774258 0.439505 0.633553C0.58021 0.492847 0.742483 0.38442 0.926323 0.308271C1.11016 0.232122 1.30158 0.194048 1.50057 0.194048C1.69955 0.194048 1.89097 0.232122 2.07481 0.308271C2.25865 0.38442 2.42092 0.492847 2.56162 0.633553C2.70233 0.774258 2.81076 0.936531 2.88691 1.12037C2.96305 1.30421 3.00113 1.49563 3.00113 1.69461Z" fill="white"/>
</svg>
