<svg width="120" height="23" viewBox="0 0 120 23" fill="none" xmlns="http://www.w3.org/2000/svg">
<path d="M0.752991 0.546641C0.79557 3.01339 0.838142 5.4376 0.880722 7.90435C0.880722 8.49976 0.880722 9.09519 0.923301 9.69061C0.923301 9.98832 0.923301 10.286 0.923301 10.5837C0.96588 14.4965 1.05103 18.4093 1.0936 22.3221C1.51937 22.3221 1.98771 22.3221 2.41348 22.3646C2.96697 22.3646 3.52047 22.3646 4.11654 22.3646C6.79886 22.4071 9.60891 22.3646 12.4615 22.3221C13.9091 22.2795 15.3567 22.237 16.8469 22.1945C17.6133 22.1519 18.3797 22.1519 19.146 22.1094C43.4572 21.1312 72.6647 17.0909 104.129 6.28821C109.451 4.45942 114.56 2.54556 119.456 0.546647L0.752991 0.546641Z" fill="url(#paint0_radial_2_111)"/>
<defs>
<radialGradient id="paint0_radial_2_111" cx="0" cy="0" r="1" gradientUnits="userSpaceOnUse" gradientTransform="translate(248.208 98.8791) rotate(180) scale(18.1655 18.1259)">
<stop stop-color="#464749"/>
<stop offset="1" stop-color="#101417"/>
</radialGradient>
</defs>
</svg>
