<svg width="4" height="4" viewBox="0 0 4 4" fill="none" xmlns="http://www.w3.org/2000/svg">
<path d="M3.11686 2.16761C3.11686 2.37426 3.07732 2.57305 2.99823 2.76398C2.91915 2.95491 2.80654 3.12345 2.66041 3.26958C2.51428 3.4157 2.34575 3.52831 2.15482 3.6074C1.96389 3.68647 1.76509 3.72602 1.55843 3.72603C1.35177 3.72602 1.15298 3.68647 0.962049 3.6074C0.77112 3.52831 0.602589 3.4157 0.456459 3.26958C0.310328 3.12345 0.197719 2.95491 0.118634 2.76398C0.0395483 2.57305 5.57552e-06 2.37426 6.19889e-06 2.16761C5.57552e-06 1.96094 0.0395483 1.76214 0.118634 1.57121C0.197719 1.38028 0.310328 1.21175 0.456459 1.06562C0.602589 0.919492 0.77112 0.806882 0.962049 0.727799C1.15298 0.648718 1.35177 0.609177 1.55843 0.609177C1.76509 0.609177 1.96389 0.648718 2.15482 0.727799C2.34575 0.806882 2.51428 0.919492 2.66041 1.06562C2.80654 1.21175 2.91915 1.38028 2.99823 1.57121C3.07732 1.76214 3.11686 1.96094 3.11686 2.16761Z" fill="white"/>
</svg>
