<svg width="97" height="19" viewBox="0 0 97 19" fill="none" xmlns="http://www.w3.org/2000/svg">
<path d="M0.726692 18.5453C0.761129 16.5493 0.79556 14.5877 0.829996 12.5917C0.829996 12.11 0.829997 11.6282 0.864433 11.1464C0.864433 10.9055 0.864433 10.6646 0.864433 10.4237C0.898869 7.25762 0.967737 4.09156 1.00217 0.925502C1.34651 0.925502 1.72529 0.925503 2.06964 0.891086C2.51729 0.891086 2.96493 0.891086 3.44701 0.891086C5.61638 0.856672 7.88905 0.891085 10.1962 0.925502C11.3669 0.959919 12.5377 0.99433 13.7429 1.02874C14.3627 1.06316 14.9825 1.06316 15.6024 1.09757C35.2644 1.88908 58.8864 5.15838 84.3334 13.8995C88.6377 15.3792 92.7699 16.9279 96.7298 18.5453L0.726692 18.5453Z" fill="url(#paint0_radial_2_121)"/>
<defs>
<radialGradient id="paint0_radial_2_121" cx="0" cy="0" r="1" gradientUnits="userSpaceOnUse" gradientTransform="translate(-14.6556 -61.0949) scale(11.8821 11.8678)">
<stop stop-color="#464749"/>
<stop offset="1" stop-color="#101417"/>
</radialGradient>
</defs>
</svg>
