<svg width="4" height="4" viewBox="0 0 4 4" fill="none" xmlns="http://www.w3.org/2000/svg">
<path d="M3.11686 1.60897C3.11686 1.81562 3.07732 2.01441 2.99823 2.20534C2.91915 2.39627 2.80654 2.5648 2.66041 2.71094C2.51428 2.85705 2.34575 2.96967 2.15482 3.04876C1.96389 3.12785 1.76509 3.16739 1.55843 3.1674C1.35177 3.16739 1.15298 3.12785 0.962049 3.04876C0.77112 2.96967 0.602589 2.85705 0.456459 2.71094C0.310328 2.5648 0.197719 2.39627 0.118634 2.20534C0.0395483 2.01441 5.57552e-06 1.81562 6.19889e-06 1.60897C5.57552e-06 1.40231 0.0395483 1.20351 0.118634 1.01259C0.197719 0.821655 0.310328 0.653123 0.456459 0.506992C0.602589 0.360855 0.77112 0.248242 0.962049 0.169168C1.15298 0.0900867 1.35177 0.0505447 1.55843 0.0505447C1.76509 0.0505447 1.96389 0.0900867 2.15482 0.169168C2.34575 0.248242 2.51428 0.360855 2.66041 0.506992C2.80654 0.653123 2.91915 0.821655 2.99823 1.01259C3.07732 1.20351 3.11686 1.40231 3.11686 1.60897Z" fill="white"/>
</svg>
