<svg width="3" height="4" viewBox="0 0 3 4" fill="none" xmlns="http://www.w3.org/2000/svg">
<path d="M3.00113 1.71497C3.00113 1.91395 2.96305 2.10536 2.88691 2.2892C2.81076 2.47305 2.70233 2.63532 2.56162 2.77602C2.42092 2.91673 2.25865 3.02516 2.07481 3.10131C1.89097 3.17745 1.69955 3.21553 1.50057 3.21553C1.30158 3.21553 1.11016 3.17745 0.926323 3.10131C0.742483 3.02516 0.58021 2.91673 0.439505 2.77602C0.298799 2.63532 0.190372 2.47305 0.114223 2.2892C0.0380738 2.10536 -3.75139e-07 1.91395 0 1.71497C-3.75139e-07 1.51598 0.0380738 1.32456 0.114223 1.14072C0.190372 0.956882 0.298799 0.794612 0.439505 0.653906C0.58021 0.513199 0.742483 0.404771 0.926323 0.328622C1.11016 0.252473 1.30158 0.214401 1.50057 0.214401C1.69955 0.214401 1.89097 0.252473 2.07481 0.328622C2.25865 0.404771 2.42092 0.513199 2.56162 0.653906C2.70233 0.794612 2.81076 0.956882 2.88691 1.14072C2.96305 1.32456 3.00113 1.51598 3.00113 1.71497Z" fill="white"/>
</svg>
