<svg width="4" height="4" viewBox="0 0 4 4" fill="none" xmlns="http://www.w3.org/2000/svg">
<path d="M3.11686 2.28487C3.11686 2.49152 3.07732 2.69032 2.99823 2.88125C2.91915 3.07218 2.80654 3.24071 2.66041 3.38684C2.51428 3.53297 2.34575 3.64557 2.15482 3.72466C1.96389 3.80375 1.76509 3.84329 1.55843 3.84329C1.35177 3.84329 1.15298 3.80375 0.962049 3.72466C0.77112 3.64557 0.602589 3.53297 0.456459 3.38684C0.310328 3.24071 0.197719 3.07218 0.118634 2.88125C0.0395483 2.69032 5.57552e-06 2.49152 6.19889e-06 2.28487C5.57552e-06 2.0782 0.0395483 1.8794 0.118634 1.68847C0.197719 1.49754 0.310328 1.32902 0.456459 1.18289C0.602589 1.03676 0.77112 0.924148 0.962049 0.845062C1.15298 0.765978 1.35177 0.726437 1.55843 0.726437C1.76509 0.726437 1.96389 0.765978 2.15482 0.845062C2.34575 0.924148 2.51428 1.03676 2.66041 1.18289C2.80654 1.32902 2.91915 1.49754 2.99823 1.68847C3.07732 1.8794 3.11686 2.0782 3.11686 2.28487Z" fill="white"/>
</svg>
