<svg width="4" height="4" viewBox="0 0 4 4" fill="none" xmlns="http://www.w3.org/2000/svg">
<path d="M3.11686 1.72623C3.11686 1.93288 3.07732 2.13168 2.99823 2.32261C2.91915 2.51353 2.80654 2.68207 2.66041 2.8282C2.51428 2.97433 2.34575 3.08693 2.15482 3.16602C1.96389 3.24511 1.76509 3.28465 1.55843 3.28466C1.35177 3.28465 1.15298 3.24511 0.962049 3.16602C0.77112 3.08693 0.602589 2.97433 0.456459 2.8282C0.310328 2.68207 0.197719 2.51353 0.118634 2.32261C0.0395483 2.13168 5.57552e-06 1.93288 6.19889e-06 1.72623C5.57552e-06 1.51956 0.0395483 1.32076 0.118634 1.12983C0.197719 0.938906 0.310328 0.770374 0.456459 0.624248C0.602589 0.478112 0.77112 0.365506 0.962049 0.286424C1.15298 0.207342 1.35177 0.167801 1.55843 0.167801C1.76509 0.167801 1.96389 0.207342 2.15482 0.286428C2.34575 0.365506 2.51428 0.478112 2.66041 0.624248C2.80654 0.770374 2.91915 0.938906 2.99823 1.12983C3.07732 1.32076 3.11686 1.51956 3.11686 1.72623Z" fill="white"/>
</svg>
