<svg width="4" height="4" viewBox="0 0 4 4" fill="none" xmlns="http://www.w3.org/2000/svg">
<path d="M3.11686 1.94692C3.11686 2.15358 3.07732 2.35237 2.99823 2.5433C2.91915 2.73423 2.80654 2.90276 2.66041 3.04889C2.51428 3.19502 2.34575 3.30762 2.15482 3.3867C1.96389 3.46579 1.76509 3.50534 1.55843 3.50535C1.35177 3.50534 1.15298 3.46579 0.962049 3.3867C0.77112 3.30762 0.602589 3.19502 0.456459 3.04889C0.310328 2.90276 0.197719 2.73423 0.118634 2.5433C0.0395483 2.35237 5.57552e-06 2.15358 6.19889e-06 1.94692C5.57552e-06 1.74025 0.0395483 1.54145 0.118634 1.35052C0.197719 1.15959 0.310328 0.991062 0.456459 0.844936C0.602589 0.698805 0.77112 0.586199 0.962049 0.507112C1.15298 0.42803 1.35177 0.388489 1.55843 0.388489C1.76509 0.388489 1.96389 0.42803 2.15482 0.507112C2.34575 0.586199 2.51428 0.698805 2.66041 0.844936C2.80654 0.991062 2.91915 1.15959 2.99823 1.35052C3.07732 1.54145 3.11686 1.74025 3.11686 1.94692Z" fill="white"/>
</svg>
