<svg width="4" height="4" viewBox="0 0 4 4" fill="none" xmlns="http://www.w3.org/2000/svg">
<path d="M3.11686 2.38829C3.11686 2.59494 3.07732 2.79374 2.99823 2.98467C2.91915 3.17559 2.80654 3.34413 2.66041 3.49026C2.51428 3.63639 2.34575 3.749 2.15482 3.82807C1.96389 3.90716 1.76509 3.94671 1.55843 3.94671C1.35177 3.94671 1.15298 3.90716 0.962049 3.82807C0.77112 3.749 0.602589 3.63639 0.456459 3.49026C0.310328 3.34413 0.197719 3.17559 0.118634 2.98467C0.0395483 2.79374 5.57552e-06 2.59494 6.19889e-06 2.38829C5.57552e-06 2.18162 0.0395483 1.98282 0.118634 1.79189C0.197719 1.60096 0.310328 1.43243 0.456459 1.2863C0.602589 1.14017 0.77112 1.02756 0.962049 0.94848C1.15298 0.869398 1.35177 0.829857 1.55843 0.829857C1.76509 0.829857 1.96389 0.869398 2.15482 0.94848C2.34575 1.02756 2.51428 1.14017 2.66041 1.2863C2.80654 1.43243 2.91915 1.60096 2.99823 1.79189C3.07732 1.98282 3.11686 2.18162 3.11686 2.38829Z" fill="white"/>
</svg>
