<svg width="4" height="5" viewBox="0 0 4 5" fill="none" xmlns="http://www.w3.org/2000/svg">
<path d="M3.11686 2.50555C3.11686 2.71221 3.07732 2.911 2.99823 3.10193C2.91915 3.29286 2.80654 3.46139 2.66041 3.60752C2.51428 3.75365 2.34575 3.86626 2.15482 3.94535C1.96389 4.02443 1.76509 4.06397 1.55843 4.06398C1.35177 4.06397 1.15298 4.02443 0.962049 3.94535C0.77112 3.86626 0.602589 3.75365 0.456459 3.60752C0.310328 3.46139 0.197719 3.29286 0.118634 3.10193C0.0395483 2.911 5.57552e-06 2.71221 6.19889e-06 2.50555C5.57552e-06 2.29888 0.0395483 2.10009 0.118634 1.90916C0.197719 1.71823 0.310328 1.5497 0.456459 1.40357C0.602589 1.25744 0.77112 1.14483 0.962049 1.06575C1.15298 0.986662 1.35177 0.947121 1.55843 0.947121C1.76509 0.947121 1.96389 0.986662 2.15482 1.06575C2.34575 1.14483 2.51428 1.25744 2.66041 1.40357C2.80654 1.5497 2.91915 1.71823 2.99823 1.90916C3.07732 2.10009 3.11686 2.29888 3.11686 2.50555Z" fill="white"/>
</svg>
